<svg width="24" height="25" viewBox="0 0 24 25" fill="none" xmlns="http://www.w3.org/2000/svg">
<path d="M18 2.68823H6C4.34 2.68823 3 4.01823 3 5.65823V16.5682C3 18.2082 4.34 19.5382 6 19.5382H6.76C7.56 19.5382 8.32 19.8482 8.88 20.4082L10.59 22.0982C11.37 22.8682 12.64 22.8682 13.42 22.0982L15.13 20.4082C15.69 19.8482 16.46 19.5382 17.25 19.5382H18C19.66 19.5382 21 18.2082 21 16.5682V5.65823C21 4.01823 19.66 2.68823 18 2.68823ZM10.38 13.6982C10.79 13.6982 11.13 14.0382 11.13 14.4482C11.13 14.8582 10.79 15.1982 10.38 15.1982H7.7C7.26 15.1982 6.85 14.9882 6.59 14.6282C6.34 14.2882 6.28 13.8682 6.4 13.4682C6.75 12.3982 7.61 11.8182 8.37 11.2982C9.17 10.7582 9.62 10.4182 9.62 9.83823C9.62 9.31823 9.2 8.89823 8.68 8.89823C8.16 8.89823 7.75 9.32823 7.75 9.84823C7.75 10.2582 7.41 10.5982 7 10.5982C6.59 10.5982 6.25 10.2582 6.25 9.84823C6.25 8.50823 7.34 7.40823 8.69 7.40823C10.04 7.40823 11.13 8.49823 11.13 9.84823C11.13 11.2582 10.07 11.9782 9.22 12.5582C8.69 12.9182 8.19 13.2582 7.94 13.7082H10.38V13.6982ZM17 13.7682H16.79V14.4582C16.79 14.8682 16.45 15.2082 16.04 15.2082C15.63 15.2082 15.29 14.8682 15.29 14.4582V13.7682H13.33C13.33 13.7682 13.33 13.7682 13.32 13.7682C12.83 13.7682 12.38 13.5082 12.13 13.0882C11.88 12.6582 11.88 12.1282 12.13 11.7082C12.81 10.5382 13.6 9.20823 14.32 8.04823C14.64 7.53823 15.25 7.30823 15.82 7.46823C16.39 7.63823 16.79 8.15823 16.78 8.75823V12.2782H17C17.41 12.2782 17.75 12.6182 17.75 13.0282C17.75 13.4382 17.41 13.7682 17 13.7682Z" fill="#0F0F0F"/>
<path d="M15.29 12.2681V9.32812C14.7 10.2881 14.09 11.3181 13.54 12.2581H15.29V12.2681Z" fill="#0F0F0F"/>
</svg>
