<svg width="24" height="25" viewBox="0 0 24 25" fill="none" xmlns="http://www.w3.org/2000/svg">
<path d="M21 10.1884H3M21 12.6884V8.98835C21 7.3082 21 6.46812 20.673 5.82638C20.3854 5.2619 19.9265 4.80295 19.362 4.51533C18.7202 4.18835 17.8802 4.18835 16.2 4.18835H7.8C6.11984 4.18835 5.27976 4.18835 4.63803 4.51533C4.07354 4.80295 3.6146 5.2619 3.32698 5.82638C3 6.46812 3 7.3082 3 8.98835V17.3884C3 19.0685 3 19.9086 3.32698 20.5503C3.6146 21.1148 4.07354 21.5738 4.63803 21.8614C5.27976 22.1884 6.11984 22.1884 7.8 22.1884H12M16 2.18835V6.18835M8 2.18835V6.18835M14.5 19.1884L16.5 21.1884L21 16.6884" stroke="black" stroke-width="2" stroke-linecap="round" stroke-linejoin="round"/>
</svg>
