<svg width="24" height="25" viewBox="0 0 24 25" fill="none" xmlns="http://www.w3.org/2000/svg">
<path d="M15 9.18835H15.01M9 9.18835H9.01M22 12.1884C22 17.7112 17.5228 22.1884 12 22.1884C6.47715 22.1884 2 17.7112 2 12.1884C2 6.66551 6.47715 2.18835 12 2.18835C17.5228 2.18835 22 6.66551 22 12.1884ZM15.5 9.18835C15.5 9.4645 15.2761 9.68835 15 9.68835C14.7239 9.68835 14.5 9.4645 14.5 9.18835C14.5 8.91221 14.7239 8.68835 15 8.68835C15.2761 8.68835 15.5 8.91221 15.5 9.18835ZM9.5 9.18835C9.5 9.4645 9.27614 9.68835 9 9.68835C8.72386 9.68835 8.5 9.4645 8.5 9.18835C8.5 8.91221 8.72386 8.68835 9 8.68835C9.27614 8.68835 9.5 8.91221 9.5 9.18835ZM12 17.6884C14.5005 17.6884 16.5 15.8554 16.5 14.1884H7.5C7.5 15.8554 9.4995 17.6884 12 17.6884Z" stroke="black" stroke-width="2" stroke-linecap="round" stroke-linejoin="round"/>
</svg>
