<svg width="25" height="25" viewBox="0 0 25 25" fill="none" xmlns="http://www.w3.org/2000/svg">
<path d="M22.4698 18.5185C22.4698 18.8785 22.3898 19.2485 22.2198 19.6085C22.0498 19.9685 21.8298 20.3085 21.5398 20.6285C21.0498 21.1685 20.5098 21.5585 19.8998 21.8085C19.2998 22.0585 18.6498 22.1885 17.9498 22.1885C16.9298 22.1885 15.8398 21.9485 14.6898 21.4585C13.5398 20.9685 12.3898 20.3085 11.2498 19.4785C10.0998 18.6385 9.00976 17.7085 7.96976 16.6785C6.93976 15.6385 6.00976 14.5485 5.17976 13.4085C4.35976 12.2685 3.69976 11.1285 3.21976 9.99848C2.73976 8.85848 2.49976 7.76848 2.49976 6.72848C2.49976 6.04848 2.61976 5.39848 2.85976 4.79848C3.09976 4.18848 3.47976 3.62848 4.00976 3.12848C4.64976 2.49848 5.34976 2.18848 6.08976 2.18848C6.36976 2.18848 6.64976 2.24848 6.89976 2.36848C7.15976 2.48848 7.38976 2.66848 7.56976 2.92848L9.88976 6.19848C10.0698 6.44848 10.1998 6.67848 10.2898 6.89848C10.3798 7.10848 10.4298 7.31848 10.4298 7.50848C10.4298 7.74848 10.3598 7.98848 10.2198 8.21848C10.0898 8.44848 9.89976 8.68848 9.65976 8.92848L8.89976 9.71848C8.78976 9.82848 8.73976 9.95848 8.73976 10.1185C8.73976 10.1985 8.74976 10.2685 8.76976 10.3485C8.79976 10.4285 8.82976 10.4885 8.84976 10.5485C9.02976 10.8785 9.33976 11.3085 9.77976 11.8285C10.2298 12.3485 10.7098 12.8785 11.2298 13.4085C11.7698 13.9385 12.2898 14.4285 12.8198 14.8785C13.3398 15.3185 13.7698 15.6185 14.1098 15.7985C14.1598 15.8185 14.2198 15.8485 14.2898 15.8785C14.3698 15.9085 14.4498 15.9185 14.5398 15.9185C14.7098 15.9185 14.8398 15.8585 14.9498 15.7485L15.7098 14.9985C15.9598 14.7485 16.1998 14.5585 16.4298 14.4385C16.6598 14.2985 16.8898 14.2285 17.1398 14.2285C17.3298 14.2285 17.5298 14.2685 17.7498 14.3585C17.9698 14.4485 18.1998 14.5785 18.4498 14.7485L21.7598 17.0985C22.0198 17.2785 22.1998 17.4885 22.3098 17.7385C22.4098 17.9885 22.4698 18.2385 22.4698 18.5185Z" stroke="white" stroke-width="1.5" stroke-miterlimit="10"/>
</svg>
