<svg width="30" height="25" viewBox="0 0 30 25" fill="none" xmlns="http://www.w3.org/2000/svg">
<g clip-path="url(#clip0_1192_4953)">
<path d="M3.48361 13.3149H1.5588V15.0903H0.473633V16.4738H1.55944V19.3446C1.55944 20.5196 1.99183 21.1629 3.48232 21.1629C3.92824 21.1629 4.36901 21.1219 4.69637 21.0289V19.7224C4.53076 19.7589 4.34388 19.7602 4.17891 19.7602C3.59251 19.7602 3.48425 19.5248 3.48425 19.0117V16.4738H4.88582V15.0903H3.48425V13.3149H3.48361Z" fill="white"/>
<path d="M9.31952 16.6708V14.9372C8.06359 14.9064 7.32382 15.501 6.98616 16.2944C6.98616 15.9698 6.96296 15.3034 6.9301 15.0905H5.06006C5.07166 15.6356 5.07166 16.1821 5.07166 16.7273V21.115H6.98552V18.9138C6.98552 17.1955 7.95018 16.6484 9.31888 16.6708H9.31952Z" fill="white"/>
<path d="M12.4175 14.9268C10.206 14.9268 9.05957 16.4135 9.05957 18.1106C9.05957 19.6422 9.95335 21.2784 12.4317 21.2784C14.3752 21.2784 15.2851 20.3401 15.6505 19.2728H13.7366C13.5162 19.6422 13.1753 19.8629 12.4523 19.8629C11.5457 19.8629 11.0147 19.294 10.9651 18.566H15.713C15.7233 18.3729 15.7233 18.2632 15.7233 18.1112C15.7233 17.8316 15.6923 17.5513 15.6298 17.2781L12.4613 14.928C12.4465 14.928 12.4323 14.9274 12.4175 14.9274V14.9268ZM10.9889 17.3993C11.0456 16.8067 11.411 16.2608 12.4162 16.2608C13.495 16.2608 13.7437 16.9394 13.7817 17.3993H10.9882H10.9889Z" fill="white"/>
<path d="M20.9385 15.0958L20.9243 15.1304L20.8818 15.0759C20.6028 14.9784 20.2876 14.9277 19.9384 14.9277C19.6755 14.9277 19.4448 14.9547 19.2399 15.0002L16.0146 17.5221V21.1165H17.9395V18.1109C17.9395 17.0251 18.3551 16.4087 19.2482 16.4087C20.1414 16.4087 20.3766 17.0148 20.3766 17.7043V21.1165H22.311V17.4003C22.311 16.2362 21.8149 15.428 20.9385 15.0964V15.0958Z" fill="white"/>
<path d="M29.5146 19.4202V12.4336H27.5898V15.5482C27.4158 15.3256 26.9351 14.9273 25.7539 14.9273C24.2563 14.9273 22.637 16.1222 22.637 18.1548C22.637 20.0359 23.8929 21.2789 25.5748 21.2789C26.8301 21.2789 27.2566 20.8826 27.5898 20.4195C27.6001 20.6536 27.6117 20.9371 27.6368 21.116H29.5262C29.5146 20.5548 29.5146 19.9821 29.5146 19.4208V19.4202ZM26.138 19.7896C25.1572 19.7896 24.6056 19.063 24.6056 18.1124C24.6056 17.2241 25.1063 16.4063 26.1444 16.4063C27.1825 16.4063 27.6368 17.0689 27.6368 18.1041C27.6368 19.1393 27.1297 19.7896 26.1373 19.7896H26.138Z" fill="white"/>
<path d="M21.8167 11.4106L19.0445 11.7769L19.4789 12.3317L15.9772 14.9838L13.033 12.7992V14.6214L15.9772 16.8053L20.3224 13.4086L20.7644 13.973L21.8167 11.4106Z" fill="#00AAA5"/>
<path d="M6.23961 23.1846C6.23961 23.504 6.05402 23.7618 5.71442 23.7618C5.39351 23.7618 5.2002 23.5181 5.2002 23.1891C5.2002 22.86 5.39094 22.6118 5.72731 22.6118C6.03727 22.6118 6.23961 22.8402 6.23961 23.1846ZM5.41865 23.1871C5.41865 23.4225 5.53399 23.588 5.72216 23.588C5.91032 23.588 6.02116 23.4296 6.02116 23.1878C6.02116 22.946 5.91354 22.7856 5.71765 22.7856C5.52175 22.7856 5.41865 22.9396 5.41865 23.1865V23.1871Z" fill="#BCBEC0"/>
<path d="M6.78343 22.9149C6.78343 22.82 6.78343 22.7225 6.78149 22.6384H6.98835C6.9935 22.6699 6.99672 22.7776 6.99672 22.811C7.03925 22.7218 7.12947 22.6128 7.3389 22.6128C7.54833 22.6128 7.70685 22.743 7.70685 23.0323V23.7371H7.4942V23.0586C7.4942 22.9008 7.43362 22.7937 7.27188 22.7937C7.07921 22.7937 6.99672 22.9348 6.99672 23.1503V23.7378H6.78407V22.9162L6.78343 22.9149Z" fill="#BCBEC0"/>
<path d="M8.46279 23.2275C8.46408 23.4341 8.56847 23.588 8.7489 23.588C8.91386 23.588 8.96671 23.5059 9.00086 23.4283H9.2148C9.17227 23.5675 9.0537 23.7618 8.74246 23.7618C8.39255 23.7618 8.24756 23.4828 8.24756 23.1993C8.24756 22.869 8.4151 22.6118 8.75405 22.6118C9.11427 22.6118 9.23349 22.894 9.23349 23.1358C9.23349 23.1698 9.23349 23.1974 9.23026 23.2275H8.46214H8.46279ZM9.0189 23.0832C9.01697 22.9126 8.9332 22.7747 8.75212 22.7747C8.57105 22.7747 8.48727 22.9024 8.46923 23.0832H9.0189Z" fill="#BCBEC0"/>
<path d="M10.6762 23.4319C10.7103 23.5627 10.8057 23.641 10.9668 23.641C11.1453 23.641 11.2168 23.5614 11.2168 23.4498C11.2168 23.3382 11.1652 23.2818 10.9378 23.2266C10.6426 23.1554 10.575 23.0663 10.575 22.9213C10.575 22.7764 10.6884 22.625 10.95 22.625C11.2116 22.625 11.3289 22.7802 11.345 22.9335H11.2026C11.1846 22.8521 11.1214 22.7462 10.9442 22.7462C10.767 22.7462 10.7206 22.8302 10.7206 22.9098C10.7206 23.0009 10.7696 23.0464 10.9784 23.0964C11.2967 23.1721 11.3682 23.2766 11.3682 23.4389C11.3682 23.6333 11.2116 23.7628 10.9629 23.7628C10.6987 23.7628 10.5595 23.6268 10.5305 23.4325H10.6768L10.6762 23.4319Z" fill="#BCBEC0"/>
<path d="M11.769 22.6506H11.9656V22.3203H12.1106V22.6506H12.3612V22.7757H12.1106V23.4492C12.1106 23.5633 12.1363 23.6262 12.2388 23.6262C12.2685 23.6262 12.311 23.6242 12.3438 23.6146V23.7307C12.3026 23.7468 12.2446 23.7506 12.1956 23.7506C12.0423 23.7506 11.9656 23.673 11.9656 23.496V22.7751H11.769V22.65V22.6506Z" fill="#BCBEC0"/>
<path d="M13.7733 23.191C13.7733 23.4976 13.6 23.7618 13.2707 23.7618C12.9678 23.7618 12.7822 23.5207 12.7822 23.1936C12.7822 22.8665 12.9607 22.624 13.2823 22.624C13.5781 22.624 13.7733 22.8498 13.7733 23.1904V23.191ZM12.9337 23.1929C12.9337 23.4418 13.0638 23.6348 13.2791 23.6348C13.4943 23.6348 13.6219 23.4546 13.6219 23.1936C13.6219 22.9325 13.5001 22.7517 13.2752 22.7517C13.0503 22.7517 12.9343 22.9383 12.9343 23.1936L12.9337 23.1929Z" fill="#BCBEC0"/>
<path d="M14.4797 23.5877V24.1669H14.3347V22.9168C14.3347 22.8283 14.3347 22.734 14.3328 22.6507H14.4745C14.479 22.6898 14.4797 22.7552 14.4797 22.8347C14.5435 22.7142 14.6588 22.625 14.8509 22.625C15.106 22.625 15.2865 22.8379 15.2865 23.1657C15.2865 23.555 15.0764 23.7622 14.8128 23.7622C14.6279 23.7622 14.5312 23.6826 14.479 23.5877H14.4797ZM15.1357 23.1715C15.1357 22.9297 15.021 22.7552 14.8186 22.7552C14.5718 22.7552 14.472 22.9098 14.472 23.1907C14.472 23.4716 14.5519 23.6352 14.8038 23.6352C15.0184 23.6352 15.1357 23.4569 15.1357 23.1721V23.1715Z" fill="#BCBEC0"/>
<path d="M17.4883 23.5157C17.4883 23.6126 17.4966 23.703 17.5037 23.7357H17.3645C17.3555 23.7107 17.3491 23.6613 17.3458 23.5798C17.3085 23.6568 17.2163 23.7614 16.9979 23.7614C16.7427 23.7614 16.6338 23.5965 16.6338 23.433C16.6338 23.1924 16.822 23.0828 17.1474 23.0828H17.3452V22.9801C17.3452 22.8775 17.3136 22.7448 17.0849 22.7448C16.8819 22.7448 16.8503 22.8487 16.8278 22.9352H16.6853C16.6989 22.8018 16.782 22.6229 17.0887 22.6235C17.3458 22.6235 17.4889 22.73 17.4889 22.9725V23.5151L17.4883 23.5157ZM17.3465 23.1937H17.15C16.9193 23.1937 16.7839 23.2553 16.7839 23.4266C16.7839 23.5523 16.8729 23.6408 17.0172 23.6408C17.3065 23.6408 17.3465 23.4484 17.3465 23.2309V23.1937Z" fill="#BCBEC0"/>
<path d="M18.9981 23.6517C18.9981 23.9993 18.848 24.1885 18.5135 24.1885C18.2087 24.1885 18.0979 24.0186 18.0747 23.8614H18.2229C18.259 23.9974 18.3705 24.0648 18.5193 24.0648C18.7868 24.0648 18.857 23.8941 18.857 23.6305V23.5292C18.7984 23.6613 18.6946 23.7344 18.5032 23.7344C18.2423 23.7344 18.0515 23.5228 18.0515 23.195C18.0515 22.8352 18.2597 22.6255 18.52 22.6255C18.7359 22.6255 18.8287 22.7268 18.8564 22.807C18.8583 22.7506 18.8615 22.6762 18.8641 22.6518H19.0014C19.0014 22.7018 18.9975 22.8615 18.9975 22.9661V23.6523L18.9981 23.6517ZM18.2049 23.188C18.2049 23.433 18.3344 23.6055 18.529 23.6055C18.7848 23.6055 18.8609 23.4356 18.8609 23.1726C18.8609 22.9096 18.7842 22.7531 18.5355 22.7531C18.3073 22.7531 18.2042 22.9468 18.2042 23.1886L18.2049 23.188Z" fill="#BCBEC0"/>
<path d="M19.7084 23.2164C19.7103 23.4691 19.8379 23.6352 20.0364 23.6352C20.2348 23.6352 20.2902 23.5326 20.327 23.4479H20.4739C20.4294 23.589 20.3134 23.7622 20.0312 23.7622C19.6942 23.7622 19.5608 23.4812 19.5608 23.2035C19.5608 22.8873 19.7193 22.625 20.0441 22.625C20.3869 22.625 20.4977 22.9104 20.4977 23.1266C20.4977 23.158 20.4977 23.1875 20.4952 23.2164H19.7084ZM20.3495 23.1041C20.3476 22.9059 20.2419 22.7481 20.0409 22.7481C19.8398 22.7481 19.7367 22.8937 19.7154 23.1041H20.3495Z" fill="#BCBEC0"/>
<path d="M21.0576 22.9244C21.0576 22.8294 21.0576 22.7364 21.0557 22.6511H21.1974C21.2019 22.6845 21.2045 22.8134 21.2032 22.8448C21.249 22.7422 21.3386 22.6255 21.557 22.6255C21.7555 22.6255 21.9224 22.7416 21.9224 23.036V23.737H21.7774V23.0565C21.7774 22.8763 21.7039 22.7576 21.5248 22.7576C21.2896 22.7576 21.2032 22.9455 21.2032 23.1739V23.737H21.0582V22.925L21.0576 22.9244Z" fill="#BCBEC0"/>
<path d="M23.3953 23.4113C23.3457 23.6005 23.2187 23.7622 22.9597 23.7622C22.6742 23.7622 22.4841 23.5544 22.4841 23.1984C22.4841 22.8969 22.6504 22.625 22.9732 22.625C23.2671 22.625 23.3786 22.8328 23.3953 22.9797H23.2497C23.2194 22.861 23.1427 22.752 22.97 22.752C22.7561 22.752 22.6356 22.9335 22.6356 23.1933C22.6356 23.453 22.7503 23.6358 22.961 23.6358C23.1098 23.6358 23.1981 23.5589 23.249 23.4113H23.3953Z" fill="#BCBEC0"/>
<path d="M23.9999 22.6505C24.2003 23.2252 24.2963 23.4959 24.3298 23.6101H24.3318C24.3717 23.4818 24.4542 23.2316 24.6507 22.6505H24.799L24.3968 23.7928C24.2834 24.1123 24.2035 24.1879 23.9947 24.1879C23.958 24.1879 23.9251 24.186 23.8865 24.1809V24.0475C23.9168 24.0513 23.9477 24.0539 23.9806 24.0539C24.1288 24.0539 24.1803 23.9846 24.2531 23.7807L23.8401 22.6499H23.998L23.9999 22.6505Z" fill="#BCBEC0"/>
<path d="M25.5439 23.3398H29.4767" stroke="#BCBEC0" stroke-width="1.22" stroke-miterlimit="10"/>
<path d="M0.52417 23.3398H4.45692" stroke="#BCBEC0" stroke-width="1.22" stroke-miterlimit="10"/>
<path d="M7.4582 14.8452C7.96856 14.5104 8.60845 14.3398 9.33404 14.3578C9.34886 14.3578 9.36368 14.3597 9.3785 14.361V0.587891H6.38592C5.53983 1.53842 3.77869 2.90393 1.40796 3.46964V6.46811C2.30045 6.40846 4.37669 5.86649 5.38969 5.28732V14.5104H6.93044C7.16178 14.5104 7.36476 14.6451 7.4582 14.8452Z" fill="#00AAA5"/>
<path d="M12.4502 14.3483V12.7994C12.4502 12.58 12.5745 12.3799 12.7711 12.2812C12.9682 12.183 13.2035 12.2035 13.38 12.3344L15.9731 14.2579L16.4448 13.9007C16.0846 12.7532 15.9473 11.4198 15.9473 10.1473C15.9473 6.41954 16.959 3.38129 20.0141 3.38129C23.0692 3.38129 23.9346 6.93329 23.9346 10.028C23.9346 12.3427 23.6311 14.5536 22.5575 15.837C22.5923 15.9075 22.6252 15.9794 22.6542 16.0538C22.8172 15.7998 23.0112 15.5657 23.2354 15.356C23.9217 14.7152 24.84 14.3477 25.7537 14.3477C26.2699 14.3477 26.681 14.4176 27.0071 14.5215V12.4344C27.0071 12.1144 27.2681 11.8546 27.5896 11.8546H27.9904C28.0497 11.2569 28.0781 10.6399 28.0781 10.0081C28.0787 4.66406 25.3755 0.188477 19.9941 0.188477C14.6127 0.188477 11.7832 4.67817 11.7832 10.1877C11.7832 11.6795 11.9746 13.0867 12.3587 14.3483C12.3786 14.3483 12.398 14.3471 12.4173 14.3471C12.4282 14.3471 12.4392 14.3471 12.4502 14.3471V14.3483Z" fill="#00AAA5"/>
</g>
<defs>
<clipPath id="clip0_1192_4953">
<rect width="29.0526" height="24" fill="white" transform="translate(0.473633 0.188477)"/>
</clipPath>
</defs>
</svg>
