<svg width="24" height="25" viewBox="0 0 24 25" fill="none" xmlns="http://www.w3.org/2000/svg">
<path d="M18.4699 17.5182L18.8599 20.6782C18.9599 21.5082 18.0699 22.0882 17.3599 21.6582L13.8999 19.5982C13.6599 19.4582 13.5999 19.1582 13.7299 18.9182C14.2299 17.9982 14.4999 16.9582 14.4999 15.9182C14.4999 12.2582 11.3599 9.27823 7.49989 9.27823C6.70989 9.27823 5.93989 9.39823 5.21989 9.63823C4.84989 9.75823 4.48989 9.41823 4.57989 9.03823C5.48989 5.39823 8.98989 2.68823 13.1699 2.68823C18.0499 2.68823 21.9999 6.37823 21.9999 10.9282C21.9999 13.6282 20.6099 16.0182 18.4699 17.5182Z" fill="#0F0F0F"/>
<path d="M13 15.9183C13 17.1083 12.56 18.2083 11.82 19.0783C10.83 20.2783 9.26 21.0483 7.5 21.0483L4.89 22.5983C4.45 22.8683 3.89 22.4983 3.95 21.9883L4.2 20.0183C2.86 19.0883 2 17.5983 2 15.9183C2 14.1583 2.94 12.6083 4.38 11.6883C5.27 11.1083 6.34 10.7783 7.5 10.7783C10.54 10.7783 13 13.0783 13 15.9183Z" fill="#0F0F0F"/>
</svg>
