<svg width="17" height="17" viewBox="0 0 17 17" fill="none" xmlns="http://www.w3.org/2000/svg">
<path d="M2.72445 12.7005C2.72445 12.7005 3.49689 13.4592 3.68619 13.6816C3.99455 14.0107 4.35787 14.1661 4.83416 14.1661C4.87996 14.1661 4.92881 14.1661 4.97461 14.163C5.88139 14.1051 6.72405 13.7517 7.35605 13.4501C9.08412 12.6152 10.6015 11.43 11.8625 9.92786C12.9036 8.67559 13.5997 7.51777 14.0607 6.27463C14.3447 5.51596 14.4485 4.92486 14.4027 4.36728C14.3721 4.01079 14.2348 3.71524 13.9813 3.46235L12.9402 2.42336C12.7906 2.2832 12.6319 2.20703 12.4762 2.20703C12.2838 2.20703 12.1281 2.32281 12.0304 2.42031C12.0273 2.42336 12.0243 2.42641 12.0212 2.42945C11.835 2.60313 11.6579 2.78289 11.4717 2.97485C11.377 3.07235 11.2793 3.16985 11.1816 3.2704L10.3481 4.1022C10.0245 4.42517 10.0245 4.72377 10.3481 5.04674C10.4367 5.1351 10.5221 5.22346 10.6107 5.30877C10.8672 5.5708 10.6657 5.36975 10.9313 5.6074C10.9374 5.6135 10.9435 5.61654 10.9466 5.62264C11.2091 5.88467 11.1603 6.14061 11.1053 6.31428C11.1023 6.32342 11.0992 6.33256 11.0962 6.3417C10.8794 6.86577 10.5741 7.35937 10.11 7.94742L10.107 7.95046C9.2643 8.98641 8.37584 9.79383 7.39578 10.4124C7.2706 10.4916 7.14237 10.5556 7.02025 10.6165C6.91033 10.6713 6.80653 10.7231 6.71799 10.778C6.70577 10.7841 6.69356 10.7932 6.68135 10.7993C6.57754 10.8511 6.47984 10.8755 6.37909 10.8755C6.12568 10.8755 5.96691 10.717 5.91501 10.6652L5.31656 10.068C5.21275 9.96442 5.04788 9.8395 4.85553 9.8395C4.66624 9.8395 4.51053 9.95833 4.41588 10.0619C4.41283 10.065 4.41283 10.065 4.40978 10.068L2.7275 11.7469C2.41303 12.0576 2.72445 12.7005 2.72445 12.7005Z" stroke="black" stroke-linecap="round" stroke-linejoin="round"/>
</svg>
