<svg width="24" height="25" viewBox="0 0 24 25" fill="none" xmlns="http://www.w3.org/2000/svg">
<path d="M11.9999 14.6882C6.98991 14.6882 2.90991 18.0482 2.90991 22.1882C2.90991 22.4682 3.12991 22.6882 3.40991 22.6882H20.5899C20.8699 22.6882 21.0899 22.4682 21.0899 22.1882C21.0899 18.0482 17.0099 14.6882 11.9999 14.6882Z" fill="#0F0F0F"/>
<path d="M12 2.68823C10.82 2.68823 9.74 3.09823 8.88 3.78823C7.73 4.69823 7 6.10823 7 7.68823C7 8.62823 7.26 9.50823 7.73 10.2582C8.59 11.7082 10.17 12.6882 12 12.6882C13.26 12.6882 14.41 12.2282 15.29 11.4382C15.68 11.1082 16.02 10.7082 16.28 10.2582C16.74 9.50823 17 8.62823 17 7.68823C17 4.92823 14.76 2.68823 12 2.68823ZM14.59 7.14823L11.92 9.60823C11.74 9.77823 11.51 9.85823 11.28 9.85823C11.04 9.85823 10.8 9.76823 10.62 9.58823L9.39 8.34823C9.02 7.97823 9.02 7.38823 9.39 7.01823C9.76 6.64823 10.35 6.64823 10.72 7.01823L11.31 7.60823L13.32 5.75823C13.7 5.40823 14.29 5.42823 14.64 5.80823C14.99 6.19823 14.97 6.79823 14.59 7.14823Z" fill="#0F0F0F"/>
</svg>
