<svg width="24" height="25" viewBox="0 0 24 25" fill="none" xmlns="http://www.w3.org/2000/svg">
<path d="M11.94 2.89831L9.52995 8.50831H7.11995C6.71995 8.50831 6.32995 8.53831 5.94995 8.61831L6.94995 6.21831L6.98995 6.12831L7.04995 5.96831C7.07995 5.89831 7.09995 5.83831 7.12995 5.78831C8.28995 3.09831 9.58995 2.25831 11.94 2.89831Z" fill="#0F0F0F"/>
<path d="M18.7301 8.77825L18.7101 8.76825C18.1101 8.59825 17.5001 8.50825 16.8801 8.50825H10.6201L12.8701 3.27825L12.9001 3.20825C13.0401 3.25825 13.1901 3.32825 13.3401 3.37825L15.5501 4.30825C16.7801 4.81825 17.6401 5.34825 18.1701 5.98825C18.2601 6.10825 18.3401 6.21825 18.4201 6.34825C18.5101 6.48825 18.5801 6.62825 18.6201 6.77825C18.6601 6.86825 18.6901 6.94825 18.7101 7.03825C18.8601 7.54825 18.8701 8.12825 18.7301 8.77825Z" fill="#0F0F0F"/>
<path d="M12.52 18.3483H12.77C13.07 18.3483 13.32 18.0783 13.32 17.7483C13.32 17.3283 13.2 17.2683 12.94 17.1683L12.52 17.0183V18.3483Z" fill="#0F0F0F"/>
<path d="M18.29 10.2083C17.84 10.0783 17.37 10.0083 16.88 10.0083H7.11999C6.43999 10.0083 5.79999 10.1383 5.19999 10.3983C3.45999 11.1483 2.23999 12.8783 2.23999 14.8883V16.8383C2.23999 17.0783 2.25999 17.3083 2.28999 17.5483C2.50999 20.7283 4.20999 22.4283 7.38999 22.6383C7.61999 22.6683 7.84999 22.6883 8.09999 22.6883H15.9C19.6 22.6883 21.55 20.9283 21.74 17.4283C21.75 17.2383 21.76 17.0383 21.76 16.8383V14.8883C21.76 12.6783 20.29 10.8183 18.29 10.2083ZM13.28 16.1883C13.74 16.3483 14.36 16.6883 14.36 17.7483C14.36 18.6583 13.65 19.3883 12.77 19.3883H12.52V19.6083C12.52 19.8983 12.29 20.1283 12 20.1283C11.71 20.1283 11.48 19.8983 11.48 19.6083V19.3883H11.39C10.43 19.3883 9.63999 18.5783 9.63999 17.5783C9.63999 17.2883 9.86999 17.0583 10.16 17.0583C10.45 17.0583 10.68 17.2883 10.68 17.5783C10.68 17.9983 11 18.3483 11.39 18.3483H11.48V16.6583L10.72 16.3883C10.26 16.2283 9.63999 15.8883 9.63999 14.8283C9.63999 13.9183 10.35 13.1883 11.23 13.1883H11.48V12.9683C11.48 12.6783 11.71 12.4483 12 12.4483C12.29 12.4483 12.52 12.6783 12.52 12.9683V13.1883H12.61C13.57 13.1883 14.36 13.9983 14.36 14.9983C14.36 15.2883 14.13 15.5183 13.84 15.5183C13.55 15.5183 13.32 15.2883 13.32 14.9983C13.32 14.5783 13 14.2283 12.61 14.2283H12.52V15.9183L13.28 16.1883Z" fill="#0F0F0F"/>
<path d="M10.6799 14.8283C10.6799 15.2483 10.7999 15.3083 11.0599 15.4083L11.4799 15.5583V14.2283H11.2299C10.9199 14.2283 10.6799 14.4983 10.6799 14.8283Z" fill="#0F0F0F"/>
</svg>
